<svg width="96" height="96" viewBox="0 0 96 96" fill="none" xmlns="http://www.w3.org/2000/svg">
<g clip-path="url(#clip0_353_803)">
<path d="M69.4264 59.1433C69.4264 59.1433 58.7314 59.3197 55.1679 59.1433C53.6131 59.0664 48.9802 58.5373 48.9802 58.5373C46.9715 58.3383 45.0257 57.669 43.3676 56.5113C41.6869 55.3355 40.249 53.8387 39.1435 52.1021C38.1864 50.5962 37.6291 48.8641 37.4314 47.0869C37.4314 47.0869 36.9191 43.1751 36.8428 41.8636C36.6271 37.9925 36.8428 26.3567 36.8428 26.3567C36.8428 25.606 36.2406 25 35.4946 25C34.7487 25 34.1465 25.606 34.1465 26.3567C34.1465 26.3567 34.3622 37.9925 34.1465 41.8636C34.0746 43.1751 33.5579 47.0869 33.5579 47.0869C33.3602 48.8641 32.8029 50.5962 31.8458 52.1021C30.7359 53.8432 29.2934 55.3491 27.6038 56.5249C25.9591 57.669 24.0403 58.3383 22.0496 58.5464C22.0496 58.5464 17.6772 59.071 16.2168 59.1478C12.559 59.3378 1.56294 59.1478 1.56294 59.1478C0.816996 59.1478 0.214844 59.7538 0.214844 60.5045C0.214844 61.2552 0.816996 61.8612 1.56294 61.8612C1.56294 61.8612 12.559 61.6713 16.2168 61.8612C17.6817 61.9381 22.0496 62.4627 22.0496 62.4627C24.0358 62.6662 25.9591 63.34 27.6038 64.4841C29.1361 65.5514 30.4662 66.89 31.5312 68.4321C32.6771 70.0963 33.3467 72.0499 33.5444 74.0624C33.5444 74.0624 34.0702 78.6615 34.1465 80.1991C34.3218 83.8079 34.1465 94.6478 34.1465 94.6478C34.1465 95.3985 34.7487 96.0045 35.4946 96.0045C36.2406 96.0045 36.8428 95.3985 36.8428 94.6478C36.8428 94.6478 36.6675 83.8079 36.8428 80.1991C36.9191 78.6615 37.4449 74.0624 37.4449 74.0624C37.6426 72.0454 38.3122 70.0963 39.4581 68.4321C40.5141 66.8945 41.8397 65.565 43.3676 64.4977C45.0257 63.34 46.9715 62.6662 48.9802 62.4717C48.9802 62.4717 53.6176 61.9426 55.1679 61.8657C58.7269 61.6894 69.4264 61.8657 69.4264 61.8657C70.1723 61.8657 70.7745 61.2597 70.7745 60.509C70.7745 59.7583 70.1723 59.1524 69.4264 59.1524V59.1433Z" fill="#9F8BE7"/>
</g>
<g clip-path="url(#clip1_353_803)">
<path d="M95.3129 39.9076C95.3129 39.9076 90.6432 39.9846 89.0874 39.9076C88.4085 39.8741 86.3856 39.6431 86.3856 39.6431C85.5086 39.5562 84.6591 39.2639 83.9351 38.7585C83.2013 38.2451 82.5734 37.5915 82.0908 36.8333C81.6729 36.1758 81.4296 35.4196 81.3432 34.6436C81.3432 34.6436 81.1196 32.9356 81.0862 32.363C80.992 30.6728 81.0862 25.5924 81.0862 25.5924C81.0862 25.2646 80.8233 25 80.4976 25C80.1719 25 79.909 25.2646 79.909 25.5924C79.909 25.5924 80.0032 30.6728 79.909 32.363C79.8776 32.9356 79.652 34.6436 79.652 34.6436C79.5656 35.4196 79.3224 36.1758 78.9044 36.8333C78.4198 37.5935 77.79 38.251 77.0523 38.7644C76.3342 39.2639 75.4964 39.5562 74.6272 39.647C74.6272 39.647 72.7182 39.8761 72.0805 39.9096C70.4834 39.9925 65.6824 39.9096 65.6824 39.9096C65.3567 39.9096 65.0938 40.1742 65.0938 40.502C65.0938 40.8297 65.3567 41.0943 65.6824 41.0943C65.6824 41.0943 70.4834 41.0114 72.0805 41.0943C72.7201 41.1279 74.6272 41.3569 74.6272 41.3569C75.4944 41.4458 76.3342 41.74 77.0523 42.2396C77.7213 42.7055 78.3021 43.29 78.7671 43.9633C79.2674 44.6899 79.5598 45.5429 79.6461 46.4216C79.6461 46.4216 79.8756 48.4297 79.909 49.101C79.9855 50.6767 79.909 55.4096 79.909 55.4096C79.909 55.7374 80.1719 56.002 80.4976 56.002C80.8233 56.002 81.0862 55.7374 81.0862 55.4096C81.0862 55.4096 81.0097 50.6767 81.0862 49.101C81.1196 48.4297 81.3491 46.4216 81.3491 46.4216C81.4355 45.541 81.7278 44.6899 82.2281 43.9633C82.6892 43.292 83.268 42.7115 83.9351 42.2455C84.6591 41.74 85.5086 41.4458 86.3856 41.3609C86.3856 41.3609 88.4105 41.1299 89.0874 41.0963C90.6413 41.0193 95.3129 41.0963 95.3129 41.0963C95.6386 41.0963 95.9015 40.8317 95.9015 40.5039C95.9015 40.1762 95.6386 39.9116 95.3129 39.9116V39.9076Z" fill="#9F8BE7"/>
</g>
<g clip-path="url(#clip2_353_803)">
<path d="M31.4445 12.0223C31.4445 12.0223 27.6786 12.0844 26.4239 12.0223C25.8764 11.9952 24.2451 11.8089 24.2451 11.8089C23.5378 11.7389 22.8527 11.5032 22.2688 11.0955C21.6771 10.6815 21.1707 10.1545 20.7815 9.54299C20.4445 9.01274 20.2483 8.40287 20.1786 7.77707C20.1786 7.77707 19.9983 6.39968 19.9714 5.9379C19.8954 4.57484 19.9714 0.477707 19.9714 0.477707C19.9714 0.213376 19.7593 0 19.4967 0C19.234 0 19.022 0.213376 19.022 0.477707C19.022 0.477707 19.098 4.57484 19.022 5.9379C18.9967 6.39968 18.8147 7.77707 18.8147 7.77707C18.7451 8.40287 18.5489 9.01274 18.2119 9.54299C17.8211 10.1561 17.3131 10.6863 16.7182 11.1003C16.1391 11.5032 15.4635 11.7389 14.7625 11.8121C14.7625 11.8121 13.223 11.9968 12.7087 12.0239C11.4207 12.0908 7.5489 12.0239 7.5489 12.0239C7.28624 12.0239 7.07422 12.2373 7.07422 12.5016C7.07422 12.7659 7.28624 12.9793 7.5489 12.9793C7.5489 12.9793 11.4207 12.9124 12.7087 12.9793C13.2245 13.0064 14.7625 13.1911 14.7625 13.1911C15.4619 13.2627 16.1391 13.5 16.7182 13.9029C17.2578 14.2787 17.7261 14.75 18.1011 15.293C18.5046 15.879 18.7404 16.5669 18.81 17.2755C18.81 17.2755 18.9951 18.8949 19.022 19.4363C19.0837 20.707 19.022 24.5239 19.022 24.5239C19.022 24.7882 19.234 25.0016 19.4967 25.0016C19.7593 25.0016 19.9714 24.7882 19.9714 24.5239C19.9714 24.5239 19.9097 20.707 19.9714 19.4363C19.9983 18.8949 20.1834 17.2755 20.1834 17.2755C20.253 16.5653 20.4888 15.879 20.8923 15.293C21.2641 14.7516 21.7309 14.2834 22.2688 13.9076C22.8527 13.5 23.5378 13.2627 24.2451 13.1943C24.2451 13.1943 25.878 13.008 26.4239 12.9809C27.6771 12.9188 31.4445 12.9809 31.4445 12.9809C31.7071 12.9809 31.9192 12.7675 31.9192 12.5032C31.9192 12.2389 31.7071 12.0255 31.4445 12.0255V12.0223Z" fill="#9F8BE7"/>
</g>
<defs>
<clipPath id="clip0_353_803">
<rect width="71" height="71" fill="white" transform="translate(0 25)"/>
</clipPath>
<clipPath id="clip1_353_803">
<rect width="31" height="31" fill="white" transform="translate(65 25)"/>
</clipPath>
<clipPath id="clip2_353_803">
<rect width="25" height="25" fill="white" transform="translate(7)"/>
</clipPath>
</defs>
</svg>
