<?xml version="1.0" encoding="UTF-8"?>
<svg xmlns="http://www.w3.org/2000/svg" width="700" height="169" version="1.1" viewBox="0 0 700 169">
  <defs>
    <style>
      .cls-1 {
        fill: #b2aead;
      }
    </style>
  </defs>
  <!-- Generator: Adobe Illustrator 28.7.1, SVG Export Plug-In . SVG Version: 1.2.0 Build 142)  -->
  <g>
    <g id="Layer_1">
      <path class="cls-1" d="M278.1,135.2h21.7l-39.5-112.3h-25.1l-39.5,112.3h21.7l9.3-27.7h42.2l9.3,27.7h0ZM232.1,91.1l15.2-45.2h.9l15.2,45.2h-31.2,0ZM321.2,85.9v49.3h-19.8V51h19v14.3h1c2-4.7,5.1-8.5,9.3-11.2,4.3-2.8,9.5-4.1,15.8-4.1s10.9,1.3,15.2,3.7c4.3,2.5,7.7,6.1,10.1,10.8,2.4,4.7,3.6,10.4,3.5,17.1v53.5h-19.8v-50.6c0-5.6-1.4-10-4.4-13.2-2.9-3.2-6.9-4.8-12-4.8s-6.6.7-9.3,2.3c-2.7,1.5-4.8,3.7-6.3,6.6-1.4,2.8-2.2,6.3-2.2,10.4h0ZM419.1,168.5c-7.1,0-13.2-1-18.3-2.9-5.1-1.9-9.2-4.5-12.3-7.7-3.1-3.2-5.3-6.8-6.4-10.7l17.9-4.3c.8,1.7,2,3.3,3.5,4.9,1.6,1.6,3.6,3,6.2,4.1,2.6,1.1,5.9,1.6,9.9,1.6,5.6,0,10.3-1.4,14-4.1,3.7-2.7,5.5-7.2,5.5-13.4v-15.9h-1c-1,2.1-2.5,4.1-4.5,6.3-2,2.2-4.5,4-7.7,5.4-3.2,1.4-7.2,2.2-12,2.2s-12.3-1.6-17.6-4.6c-5.2-3-9.4-7.6-12.5-13.7-3.1-6.1-4.7-13.7-4.7-22.9s1.6-17.1,4.7-23.5c3.1-6.4,7.2-11.2,12.5-14.6,5.3-3.3,11.2-4.9,17.6-4.9s9,.8,12.2,2.5c3.2,1.7,5.8,3.7,7.6,6,1.9,2.3,3.3,4.5,4.3,6.6h1.1v-13.9h19.6v85.6c0,7.2-1.7,13.2-5.2,17.9-3.5,4.7-8.1,8.2-14.1,10.6-6,2.4-12.8,3.5-20.3,3.5ZM419.2,118.4c4.2,0,7.8-1,10.8-3,2.9-2.1,5.2-5,6.7-8.8,1.6-3.9,2.3-8.5,2.3-13.8s-.7-9.9-2.3-13.9c-1.5-4-3.7-7.1-6.7-9.3-2.9-2.2-6.6-3.3-10.8-3.3s-8.1,1.1-11.1,3.5c-2.9,2.3-5.2,5.5-6.7,9.4-1.5,4-2.2,8.6-2.2,13.6s.7,9.7,2.3,13.5c1.5,3.9,3.7,6.8,6.7,9,2.9,2.1,6.6,3.2,11,3.2h0ZM518.7,99.8v-48.8h19.8v84.2h-19.3v-15h-.9c-1.9,4.7-5,8.6-9.4,11.6-4.3,3-9.7,4.5-16,4.5s-10.4-1.2-14.6-3.7c-4.2-2.5-7.5-6-9.9-10.8-2.4-4.7-3.6-10.5-3.6-17.2v-53.6h19.9v50.6c0,5.3,1.4,9.6,4.4,12.7,2.9,3.2,6.8,4.7,11.5,4.7s5.8-.7,8.5-2.1c2.8-1.4,5-3.6,6.8-6.4,1.8-2.9,2.6-6.4,2.6-10.7h0ZM564.9,22.9v112.3h-19.8V22.9h19.8ZM596.4,136.9c-5.3,0-10.1-1-14.4-2.9-4.3-1.9-7.6-4.8-10.1-8.5-2.5-3.7-3.7-8.4-3.7-13.9s.9-8.7,2.6-11.8c1.8-3.1,4.1-5.6,7.2-7.5,3-1.8,6.4-3.3,10.3-4.3,3.8-1,7.8-1.7,11.8-2.1,4.9-.5,8.9-1,12-1.4,3-.4,5.3-1.1,6.7-2,1.4-.9,2.1-2.3,2.1-4.2v-.3c0-4.1-1.2-7.3-3.7-9.6-2.5-2.2-6-3.4-10.6-3.4s-8.7,1-11.6,3.2c-2.8,2.1-4.7,4.6-5.8,7.5l-18.5-2.6c1.4-5.1,3.9-9.4,7.2-12.9,3.3-3.5,7.5-6,12.3-7.8,4.9-1.7,10.2-2.6,16.1-2.6s8.1.5,12.1,1.4,7.7,2.5,11,4.7c3.3,2.2,6,5.1,8.1,8.9,2,3.7,3,8.4,3,14v56.4h-19.1v-11.6h-.6c-1.2,2.4-2.9,4.5-5.1,6.6-2.2,2-4.9,3.7-8.2,4.9-3.4,1.2-7.2,1.8-11.6,1.8h0ZM601.6,122.3c4,0,7.4-.8,10.4-2.4,2.9-1.6,5.2-3.7,6.8-6.3,1.6-2.6,2.4-5.5,2.4-8.6v-9.9c-.6.5-1.7,1-3.2,1.4-1.5.5-3.1.8-4.9,1.1-1.8.3-3.6.6-5.4.9-1.8.2-3.3.5-4.7.6-2.9.4-5.6,1-7.9,2-2.4.9-4.2,2.2-5.5,3.8-1.4,1.6-2,3.7-2,6.3,0,3.7,1.3,6.4,4,8.3,2.6,2,6,2.9,10.1,2.9h0ZM647.1,135.2V51h19.3v14h.9c1.6-4.9,4.2-8.6,7.9-11.3,3.7-2.6,8.1-4,12.9-4s2.4,0,3.7.1c1.4.1,2.5.2,3.5.4v18.2c-.9-.3-2.2-.6-4-.8-1.7-.2-3.5-.3-5.2-.3-3.6,0-6.8.8-9.7,2.4-2.9,1.6-5.1,3.7-6.8,6.4-1.7,2.8-2.5,5.9-2.5,9.5v49.5h-19.9,0ZM161,28l-5.6,88.5L101.4.5l59.5,27.5ZM123.6,142.5l-40.7,23.2-40.7-23.2,8.3-20.1h64.9l8.3,20.1ZM82.9,44.6l21.3,51.9h-42.7s21.3-51.9,21.3-51.9ZM10.4,116.6L4.9,28,64.4.5,10.4,116.6ZM278.1,135.2h21.7l-39.5-112.3h-25.1l-39.5,112.3h21.7l9.3-27.7h42.2l9.3,27.7h0ZM232.1,91.1l15.2-45.2h.9l15.2,45.2h-31.2,0ZM321.2,85.9v49.3h-19.8V51h19v14.3h1c2-4.7,5.1-8.5,9.3-11.2,4.3-2.8,9.5-4.1,15.8-4.1s10.9,1.3,15.2,3.7c4.3,2.5,7.7,6.1,10.1,10.8,2.4,4.7,3.6,10.4,3.5,17.1v53.5h-19.8v-50.6c0-5.6-1.4-10-4.4-13.2-2.9-3.2-6.9-4.8-12-4.8s-6.6.7-9.3,2.3c-2.7,1.5-4.8,3.7-6.3,6.6-1.4,2.8-2.2,6.3-2.2,10.4h0ZM419.1,168.5c-7.1,0-13.2-1-18.3-2.9-5.1-1.9-9.2-4.5-12.3-7.7-3.1-3.2-5.3-6.8-6.4-10.7l17.9-4.3c.8,1.7,2,3.3,3.5,4.9,1.6,1.6,3.6,3,6.2,4.1,2.6,1.1,5.9,1.6,9.9,1.6,5.6,0,10.3-1.4,14-4.1,3.7-2.7,5.5-7.2,5.5-13.4v-15.9h-1c-1,2.1-2.5,4.1-4.5,6.3-2,2.2-4.5,4-7.7,5.4-3.2,1.4-7.2,2.2-12,2.2s-12.3-1.6-17.6-4.6c-5.2-3-9.4-7.6-12.5-13.7-3.1-6.1-4.7-13.7-4.7-22.9s1.6-17.1,4.7-23.5c3.1-6.4,7.2-11.2,12.5-14.6,5.3-3.3,11.2-4.9,17.6-4.9s9,.8,12.2,2.5c3.2,1.7,5.8,3.7,7.6,6,1.9,2.3,3.3,4.5,4.3,6.6h1.1v-13.9h19.6v85.6c0,7.2-1.7,13.2-5.2,17.9-3.5,4.7-8.1,8.2-14.1,10.6-6,2.4-12.8,3.5-20.3,3.5ZM419.2,118.4c4.2,0,7.8-1,10.8-3,2.9-2.1,5.2-5,6.7-8.8,1.6-3.9,2.3-8.5,2.3-13.8s-.7-9.9-2.3-13.9c-1.5-4-3.7-7.1-6.7-9.3-2.9-2.2-6.6-3.3-10.8-3.3s-8.1,1.1-11.1,3.5c-2.9,2.3-5.2,5.5-6.7,9.4-1.5,4-2.2,8.6-2.2,13.6s.7,9.7,2.3,13.5c1.5,3.9,3.7,6.8,6.7,9,2.9,2.1,6.6,3.2,11,3.2h0ZM518.7,99.8v-48.8h19.8v84.2h-19.3v-15h-.9c-1.9,4.7-5,8.6-9.4,11.6-4.3,3-9.7,4.5-16,4.5s-10.4-1.2-14.6-3.7c-4.2-2.5-7.5-6-9.9-10.8-2.4-4.7-3.6-10.5-3.6-17.2v-53.6h19.9v50.6c0,5.3,1.4,9.6,4.4,12.7,2.9,3.2,6.8,4.7,11.5,4.7s5.8-.7,8.5-2.1c2.8-1.4,5-3.6,6.8-6.4,1.8-2.9,2.6-6.4,2.6-10.7h0ZM564.9,22.9v112.3h-19.8V22.9h19.8ZM596.4,136.9c-5.3,0-10.1-1-14.4-2.9-4.3-1.9-7.6-4.8-10.1-8.5-2.5-3.7-3.7-8.4-3.7-13.9s.9-8.7,2.6-11.8c1.8-3.1,4.1-5.6,7.2-7.5,3-1.8,6.4-3.3,10.3-4.3,3.8-1,7.8-1.7,11.8-2.1,4.9-.5,8.9-1,12-1.4,3-.4,5.3-1.1,6.7-2,1.4-.9,2.1-2.3,2.1-4.2v-.3c0-4.1-1.2-7.3-3.7-9.6-2.5-2.2-6-3.4-10.6-3.4s-8.7,1-11.6,3.2c-2.8,2.1-4.7,4.6-5.8,7.5l-18.5-2.6c1.4-5.1,3.9-9.4,7.2-12.9,3.3-3.5,7.5-6,12.3-7.8,4.9-1.7,10.2-2.6,16.1-2.6s8.1.5,12.1,1.4,7.7,2.5,11,4.7c3.3,2.2,6,5.1,8.1,8.9,2,3.7,3,8.4,3,14v56.4h-19.1v-11.6h-.6c-1.2,2.4-2.9,4.5-5.1,6.6-2.2,2-4.9,3.7-8.2,4.9-3.4,1.2-7.2,1.8-11.6,1.8h0ZM601.6,122.3c4,0,7.4-.8,10.4-2.4,2.9-1.6,5.2-3.7,6.8-6.3,1.6-2.6,2.4-5.5,2.4-8.6v-9.9c-.6.5-1.7,1-3.2,1.4-1.5.5-3.1.8-4.9,1.1-1.8.3-3.6.6-5.4.9-1.8.2-3.3.5-4.7.6-2.9.4-5.6,1-7.9,2-2.4.9-4.2,2.2-5.5,3.8-1.4,1.6-2,3.7-2,6.3,0,3.7,1.3,6.4,4,8.3,2.6,2,6,2.9,10.1,2.9h0ZM647.1,135.2V51h19.3v14h.9c1.6-4.9,4.2-8.6,7.9-11.3,3.7-2.6,8.1-4,12.9-4s2.4,0,3.7.1c1.4.1,2.5.2,3.5.4v18.2c-.9-.3-2.2-.6-4-.8-1.7-.2-3.5-.3-5.2-.3-3.6,0-6.8.8-9.7,2.4-2.9,1.6-5.1,3.7-6.8,6.4-1.7,2.8-2.5,5.9-2.5,9.5v49.5h-19.9,0ZM161,28l-5.6,88.5L101.4.5l59.5,27.5ZM123.6,142.5l-40.7,23.2-40.7-23.2,8.3-20.1h64.9l8.3,20.1ZM82.9,44.6l21.3,51.9h-42.7s21.3-51.9,21.3-51.9ZM10.4,116.6L4.9,28,64.4.5,10.4,116.6Z"/>
    </g>
  </g>
</svg>