<?xml version="1.0" encoding="utf-8"?>
<!-- Generator: Adobe Illustrator 28.7.1, SVG Export Plug-In . SVG Version: 9.03 Build 54978)  -->
<svg version="1.0" id="Layer_1" xmlns="http://www.w3.org/2000/svg" xmlns:xlink="http://www.w3.org/1999/xlink" x="0px" y="0px"
	 width="223px" height="34px" viewBox="0 0 223 34" style="enable-background:new 0 0 223 34;" xml:space="preserve">
<style type="text/css">
	.st0{fill-rule:evenodd;clip-rule:evenodd;fill:#B2AEAD;}
</style>
<path class="st0" d="M8,17.2l16.3,5.4l3.6,10.5L0,22.2V12.1L27.9,0.9l-3.6,10.7L8,17.1V17.2z M51.4,17.2l-16.3-5.5L31.6,1l27.7,11.1
	v10.1L31.6,33L35,22.5L51.4,17.2L51.4,17.2z M70.8,22.8V10.6c0-1.4,0.4-2.5,1.3-3.3c0.8-0.8,2-1.3,3.3-1.3h9.9v2.9l-1.4,1.4h-6.7
	c-1.2,0-1.8,0.6-1.8,1.8v9.2c0,1.2,0.6,1.8,1.8,1.8h8.1v4.3h-9.9c-1.4,0-2.5-0.4-3.3-1.3C71.3,25.3,70.8,24.2,70.8,22.8z M94,23.4
	h3.5c1.2,0,1.8-0.6,1.8-1.8v-9.8c0-1.2-0.6-1.8-1.8-1.8H94c-1.2,0-1.8,0.6-1.8,1.8v9.8C92.2,22.8,92.8,23.4,94,23.4z M87.5,23.1
	V10.2c0-1.4,0.4-2.5,1.3-3.3c0.8-0.8,2-1.3,3.3-1.3h7.2c1.4,0,2.5,0.4,3.3,1.3c0.8,0.8,1.3,1.9,1.3,3.3v12.9c0,1.4-0.4,2.5-1.3,3.3
	c-0.8,0.8-1.9,1.3-3.3,1.3h-7.2c-1.4,0-2.5-0.4-3.3-1.3S87.5,24.5,87.5,23.1z M107.6,27.4V6h11.5c1.4,0,2.5,0.4,3.3,1.3
	c0.8,0.8,1.3,2,1.3,3.4v12.2c0,1.4-0.4,2.5-1.3,3.3c-0.8,0.8-1.9,1.3-3.3,1.3h-11.5V27.4z M112.2,23.1h5.1c1.2,0,1.8-0.6,1.8-1.8
	v-9.2c0-1.2-0.6-1.8-1.8-1.8h-5.1v12.9V23.1z M127.3,27.4V6h13.9v2.9l-1.4,1.4h-8v4.3h6.3v4.1h-6.3v4.4h9.3v4.3L127.3,27.4
	L127.3,27.4z M144.3,27.4V6h5.1l7.2,13.5h0.2l-0.5-3.8V6h4.6v21.4h-5.1l-7.2-13.5h-0.1l0.4,3.8v9.6h-4.6L144.3,27.4z M164.8,27.4V6
	h4.6v21.4H164.8z M173.4,27.4V6h5.1l7.2,13.5h0.2l-0.5-3.8V6h4.6v21.4h-5.1l-7.2-13.5h-0.2l0.4,3.8v9.6h-4.6L173.4,27.4z
	 M192.2,27.7v-4.3h4.8c1.2,0,1.8-0.6,1.8-1.8V6h4.6v17.2c0,1.4-0.4,2.5-1.3,3.3c-0.8,0.8-2,1.3-3.3,1.3L192.2,27.7L192.2,27.7z
	 M211.5,19.1h4.9l-2.3-9h-0.3L211.5,19.1L211.5,19.1z M204.9,27.4v-2.1L211,6h5.8l6.1,19.3v2.1h-4.4l-1.1-4.3h-7l-1.1,4.3
	L204.9,27.4L204.9,27.4z"/>
</svg>
