<?xml version="1.0" encoding="UTF-8"?>
<svg xmlns="http://www.w3.org/2000/svg" width="242.6mm" height="68.2mm" version="1.1" viewBox="0 0 687.6 193.2">
  <defs>
    <style>
      .cls-1 {
        fill: #b2aead;
        fill-rule: evenodd;
      }
    </style>
  </defs>
  <!-- Generator: Adobe Illustrator 28.7.1, SVG Export Plug-In . SVG Version: 1.2.0 Build 142)  -->
  <g>
    <g id="layer_1">
      <path class="cls-1" d="M676.6,104.5c1.5-1.7,4-1.6,5.3.2h0l5,6.9c1,1.3.9,3.1,0,4.4-8.7,11.3-24,22.2-42.4,23.3-14.6.8-26.6-4.7-33.1-15.1-1.3-2.1-4.1-2.2-5.6-.2-7.8,10.4-17.1,18.5-26.9,19.1-17.4,1-22.3-10.7-18-36.4.4-2.6-1.8-4.7-4.2-4.1-3.6,1-7.4,1.4-11.3,1-1.6-.1-3.1.8-3.6,2.4-6.4,21.2-21.8,40.8-41.6,42-12.7.7-31.6-6.5-29.7-36.8.2-2.5-2.1-4.4-4.3-3.7-4,1.2-8.2,1.8-12.6,1.4-1.6-.1-3.1.8-3.6,2.5-6.4,21.2-21.8,40.8-41.6,42-12.7.7-31.6-6.5-29.7-36.8.2-2.5-2.1-4.4-4.3-3.7-4,1.2-8.2,1.8-12.6,1.4-1.6-.1-3.1.8-3.6,2.5-6.4,21.2-21.8,40.8-41.6,42-9,.5-21.2-3-26.8-16-1.1-2.5-4.3-2.9-5.9-.7-7.8,10.7-17.4,19.1-27.3,19.7-10.2.6-15.8-3.5-18.2-10.8-.9-2.6-4.1-3.2-5.8-1.1-7,8.2-14.9,14.2-22.9,14.7-12.4.7-19.5-8.5-20.1-19.6-.7-13,4.9-28.2,11.2-44.8.9-2.3-.7-4.8-3.1-4.9-3.6-.2-7.7-.5-11.6-1.3-1.7-.3-3.4.8-3.9,2.5-7.4,26.5-18.8,52.4-28.3,67.7-1.1,1.7-3.3,2.2-4.9,1l-7.3-5.4c-1.5-1.1-1.9-3.3-.9-4.9,13.8-22.2,26.1-56.9,30.4-82.5.3-1.6,1.6-2.9,3.2-3l9.7-.6c2.2-.1,4,1.9,3.6,4.2v.2c-.4,2,1,4,2.9,4.2,8.7,1.2,21.8,1.3,30.6,1,2.5,0,4.2,2.5,3.3,4.9-7.1,18.9-16.6,45-16.1,55.4.2,4.7,2.3,7.2,5.9,7,6.9-.4,17.6-14.4,25.7-29.9.1-.3.3-.6.3-.9,2.7-12.2,6.8-25.8,10.9-39.5l.3-.9c.4-1.4,1.7-2.4,3.1-2.5l11.6-.7c2.4-.1,4.2,2.3,3.5,4.7-.6,2-1.2,3.9-1.8,5.9-10.2,33.6-18.9,61.8-7.3,61.1,7.6-.4,18.3-13.3,27.5-31.6.1-.3.3-.6.3-1,.5-2.4,1-4.9,1.7-7.5,5.4-21.5,11.5-42.8,17.6-64.1,1.9-6.6,3.8-13.2,5.6-19.8.4-1.5,1.7-2.5,3.1-2.6l12-.7c2.4-.1,4.2,2.3,3.5,4.7-4.8,15-9.8,30.9-14.5,46.3-1,3.2,2.5,5.9,5.2,4.1,4.7-3.2,10.2-5.4,15.5-5.7,13.5-.8,22.6,10.3,23.5,27,0,.9.1,1.8.1,2.8,0,1.8,1.4,3.3,3.2,3.5,6.3.6,12.8-1.3,17.8-5.8.5-.5.9-1.1,1-1.8,5-19.2,10.4-38.4,15.9-57.5,1.9-6.5,3.8-13.1,5.6-19.7.4-1.5,1.7-2.5,3.1-2.6l12-.7c2.4-.1,4.2,2.3,3.5,4.7-4.8,15-9.8,30.9-14.5,46.3-1,3.2,2.5,5.9,5.2,4.1,4.7-3.2,10.2-5.4,15.5-5.7,13.5-.8,22.6,10.3,23.5,27,0,.9,0,1.8.1,2.8,0,1.8,1.4,3.3,3.2,3.5,6.3.6,12.8-1.3,17.8-5.8.5-.5.9-1.1,1-1.8,5-19.2,10.4-38.4,15.9-57.5,1.9-6.5,3.7-13.1,5.6-19.7.4-1.5,1.7-2.5,3.1-2.6l12-.7c2.4-.1,4.2,2.3,3.5,4.7-4.8,15-9.8,30.9-14.5,46.3-1,3.2,2.5,5.9,5.2,4.1,4.7-3.2,10.2-5.4,15.5-5.7,13.5-.8,22.6,10.3,23.5,27,0,.9,0,1.8.1,2.8,0,1.8,1.4,3.3,3.2,3.5,6.1.5,12.4-1.2,17.3-5.3.5-.5.9-1.1,1.1-1.8,5.6-21.8,13.9-50.3,21.9-77.5.4-1.4,1.7-2.4,3.1-2.5L603.6,0c2.4-.1,4.2,2.3,3.5,4.7-11,36.5-20,68.5-24.9,87.3-6.6,25.6-6.8,32.9.6,32.5,6.3-.4,14.7-9.3,22.7-22.7.3-.5.5-1.1.5-1.7,1-26.9,17.6-51.5,42.1-52.9,16.4-.9,25.5,11.5,26.1,23.7,1.2,23.3-21.8,38.3-44.2,36.9-2.6-.2-4.5,2.6-3.3,5.1,3.1,6.7,9.7,10.4,20.9,9.8,10.7-.6,21.9-9.8,28.9-18ZM307,111.1c-5.3,21.3,1.1,29.6,9.5,29.1,13.7-.8,26.9-25.8,25.9-45.2-.4-8.4-5.4-12.8-11.2-12.5-9.6.6-20,11.6-24.2,28.6ZM398.9,105.8c-5.3,21.3,1.1,29.6,9.5,29.1h0c13.7-.8,26.9-25.8,25.9-45.2-.4-8.4-5.4-12.8-11.2-12.5-9.6.6-20,11.6-24.2,28.6ZM490.7,100.6c-5.3,21.3,1.1,29.6,9.5,29.1h0c13.7-.8,26.9-25.8,25.9-45.2-.4-8.4-5.4-12.8-11.2-12.5-9.6.6-20,11.6-24.2,28.6ZM656.8,72.8c0-5.6-3.5-9.6-9.1-9.3h0c-10.9.6-19.5,12.4-22.2,26.8-.4,2.3,1.2,4.4,3.5,4.3,14.1-.4,28.2-9.7,27.8-21.8ZM145.2,83.1c-1.4-43.2-29.5-71.7-71-70.2-17.8.8-38.2,7.6-53.5,19.6-1.4,1.1-1.8,3.2-.8,4.8l6.5,10.6c1.1,1.8,3.5,2.2,5.1.8,11.7-9.7,27.6-16.1,42.9-16.7,28.4-1.2,49.3,17,50.5,52.2,1.5,40.9-26,87.8-70.2,90.3-1.5,0-3.2.1-4.8.1s-3.9-2.2-3.4-4.5c8.5-34.4,18.5-71.4,28.6-105.7.7-2.4-1.1-4.8-3.5-4.6l-12.9.7c-1.5,0-2.7,1.1-3.1,2.5-9.8,33.8-19.5,70.4-28.3,104.8-.5,2-2.5,3.1-4.4,2.5-4.6-1.6-8.8-3.3-12.3-5.4-1.7-1-3.9-.3-4.8,1.5l-5.6,11.6c-.8,1.7-.2,3.8,1.4,4.7,12.6,7.1,31.7,11.2,50.9,10.1,63.2-3.6,94.2-62,92.5-109.9h0ZM269.5,30.1c-7.7.4-14.5,9.1-14,18.2.3,6,4.2,10,10.2,9.7,7.7-.4,14.7-9.5,14.3-18.2-.3-6-4.8-10-10.4-9.7Z"/>
    </g>
  </g>
</svg>