<?xml version="1.0" encoding="UTF-8"?>
<svg xmlns="http://www.w3.org/2000/svg" width="700" height="169" version="1.1" viewBox="0 0 700 169">
  <defs>
    <style>
      .cls-1 {
        fill: #b2aead;
      }
    </style>
  </defs>
  <g>
    <g id="Layer_1">
      <g id="katman_1">
        <path class="cls-1" d="M185.3,33c24.2,0,47.9,14.9,47.9,48.2s0,6.7-.4,9.6c0,.7-.6,1.2-1.2,1.2h-67.9c2,11.9,9.9,19.7,22.4,19.7s13.6-4.8,16.4-10.5c.4-.7,1.1-1.1,1.9-.9l25.4,5.8c.8.2,1.1,1,.9,1.8-5.9,14.1-19.4,28-44.7,28s-50.9-22.7-50.9-51.4,18.4-51.4,50.4-51.4h0ZM204.8,73.9c-1.2-11.3-8.5-17.4-18.9-17.4s-19.5,7.4-21.7,17.4h40.6Z"/>
        <path class="cls-1" d="M241.9,131.6V37.4c0-.7.6-1.3,1.2-1.3h26.4c.7,0,1.2.6,1.2,1.3v11.2c6.3-10.4,15.7-15.5,27.8-15.5,17.7,0,32.9,12.7,32.9,41v57.5c0,.7-.6,1.3-1.2,1.3h-26.4c-.7,0-1.2-.6-1.2-1.3v-53.1c0-12.7-6.3-19.7-15.5-19.7s-16.3,6.8-16.3,22.3v50.5c0,.7-.6,1.3-1.2,1.3h-26.4c-.7,0-1.2-.6-1.2-1.3h0Z"/>
        <path class="cls-1" d="M333.3,36h28c.6,0,1.1.4,1.1.9l21,73,21-73c.2-.5.7-.9,1.1-.9h28c.9,0,1.4.9,1.1,1.7l-32.2,93.8c-.3.7-.9,1.2-1.6,1.2h-35.1c-.8,0-1.4-.5-1.6-1.2l-32.2-93.8c-.3-.8.3-1.7,1.1-1.7h0Z"/>
        <path class="cls-1" d="M496.3,131.6v-14.8c-4.5,9.8-14.6,19.1-30.3,19.1s-31.8-12.1-31.8-29.1,11.4-31.4,36.3-31.4h14.4c7.9,0,10.1-6,9.4-10-1.1-6.8-6.9-10.4-15-10.4s-16.4,5.9-17.3,14.1c0,.7-.8,1.3-1.4,1.2l-24.5-4.3c-.7-.1-1.1-.8-1.1-1.5,4-22.3,24.2-31.4,44.9-31.4s43.7,5.3,43.7,45.4v53.1c0,.7-.6,1.3-1.2,1.3h-24.9c-.7,0-1.2-.6-1.2-1.3h0ZM474.4,114c11.6,0,19.5-9.1,20.5-20.4h-17.5c-10.6,0-14.4,4.5-14.2,10.8.2,6.6,5.3,9.6,11.4,9.6h0Z"/>
        <path class="cls-1" d="M528,58.9v-21.6c0-.7.6-1.3,1.2-1.3h10.3c4.8,0,8.7-4.1,8.7-9.1V10.1c0-.7.6-1.3,1.2-1.3h23.5c.7,0,1.2.6,1.2,1.3v25.9h19c.7,0,1.2.6,1.2,1.3v21.6c0,.7-.6,1.3-1.2,1.3h-19v35c0,11.4,9.3,16,18.9,12.4.7-.2,1.3.3,1.3,1v22.8c0,.8-.6,1.6-1.3,1.8-2.5.6-5.9,1.2-10,1.2-22.4,0-37.8-7.9-37.8-41.9v-32.1h-16.1c-.7,0-1.2-.6-1.2-1.3h0v-.2Z"/>
        <path class="cls-1" d="M700,84.5c0,28.3-19.1,51.4-50.6,51.4s-50.6-23.1-50.6-51.4,19.1-51.4,50.6-51.4,50.6,23.1,50.6,51.4ZM671.1,84.5c0-14-7.4-25.7-21.7-25.7s-21.7,11.7-21.7,25.7,7.4,25.7,21.7,25.7,21.7-11.7,21.7-25.7Z"/>
        <path class="cls-1" d="M64.5,169c4,0,7.3-3.4,7.3-7.6s-3.3-7.6-7.3-7.6-7.3,3.4-7.3,7.6,3.3,7.6,7.3,7.6Z"/>
        <path class="cls-1" d="M106,110l-40.7,4.6c-.8,0-1.1-.9-.6-1.4l39.9-32.4c2.6-2.2,4.2-5.7,3.5-9.3-.7-5.7-5.2-9.3-10.8-8.6l-43.3,6.6c-.8.1-1.1-.9-.6-1.4l42.9-34.3c8.5-6.9,9.2-20.4,1.4-28.3-7.1-7.4-18.4-7.1-25.4.2L3.2,79.2c-2.6,3-3.7,6.9-3.1,11.1,1.1,6.6,7.6,11.1,13.9,9.8l37.3-8c.8-.2,1.2,1,.6,1.4l-41.4,27.7c-5.2,3.4-7.6,9.6-5.9,15.7,1.6,8.1,9.4,12.8,16.9,10.8l61.8-15.9c.7-.2,1.2.7.8,1.2l-9.7,12.5c-2.6,3.4,1.6,8.1,5.2,5.4l31.7-27.3c5.6-4.9,1.9-14.5-5.4-13.8h0l.2.2Z"/>
      </g>
    </g>
  </g>
</svg>