<?xml version="1.0" encoding="utf-8"?>
<!-- Generator: Adobe Illustrator 28.7.1, SVG Export Plug-In . SVG Version: 9.03 Build 54978)  -->
<svg version="1.0" id="Шар_1" xmlns="http://www.w3.org/2000/svg" xmlns:xlink="http://www.w3.org/1999/xlink" x="0px" y="0px"
	 width="2854px" height="1199.1px" viewBox="0 0 2854 1199.1" style="enable-background:new 0 0 2854 1199.1;" xml:space="preserve"
	>
<style type="text/css">
	.st0{fill:#AFAFAF;}
</style>
<path class="st0" d="M628,684.8h171.8v143.1c0,15.8-12.8,28.7-28.7,28.7H656.6c-15.8,0-28.6-12.8-28.6-28.7V684.8z M969.5,341.2
	H799.8V171.8c0-47.4-19.2-90.4-50.3-121.5S675.4,0,628,0v513h513.3C1141.3,418.1,1064.4,341.2,969.5,341.2z M487.2,343.1H168.9
	C75.6,343.1,0,418.7,0,511.9v174.9c0,92.7,75.1,167.8,167.8,167.8h172.1v344.4h9.8c89.5,0,162-72.6,162-162V709
	c0-13.4-10.8-24.2-24.2-24.2H222.8c-28.7,0-52-23.3-52-52v-61.7c0-32.1,26-58.1,58.1-58.1h260.9c12.1,0,21.8-9.8,21.8-21.8V367.5
	C511.7,354,500.7,343.1,487.2,343.1z M970.6,828.4c0,15.6,12.6,28.2,28.2,28.2h114.2c15.6,0,28.2-12.7,28.2-28.2V684.8H970.6V828.4z
	 M1428.7,856.6h165.1c95.4,0,172.9-76.7,174.1-171.8h-513.3C1255.8,779.9,1333.3,856.6,1428.7,856.6z M1593.7,343.3h-165.1
	c-95.4,0-172.9,76.7-174.1,171.8h513.3C1766.6,420,1689.1,343.3,1593.7,343.3z M2683.9,342.8V200c0-15.7-12.7-28.5-28.5-28.5h-113.6
	c-15.7,0-28.5,12.8-28.5,28.5v314h169.4c0.4,0,0.8,0,1.2,0c46.8-0.3,89.2-19.4,119.9-50.1c31-31,50.2-73.8,50.2-121.1H2683.9z
	 M1935.7,735.1c-31.1,31.1-50.3,74.1-50.3,121.5h341.5c47.4,0,90.4-19.2,121.5-50.3c31.1-31.1,50.3-74,50.3-121.5h-341.5
	C2009.7,684.8,1966.8,704,1935.7,735.1z M1885.3,509v6.1h341.5c94.9,0,171.8-76.9,171.8-171.8h-347.5
	C1959.5,343.3,1885.3,417.5,1885.3,509z M2685.1,685h-171.9v0c0,94.9,77,171.9,171.9,171.9h0V685z"/>
</svg>
