<?xml version="1.0" encoding="utf-8"?>
<!-- Generator: Adobe Illustrator 28.7.1, SVG Export Plug-In . SVG Version: 9.03 Build 54978)  -->
<svg version="1.0" id="Layer_1" xmlns="http://www.w3.org/2000/svg" xmlns:xlink="http://www.w3.org/1999/xlink" x="0px" y="0px"
	 width="702.4px" height="209.5px" viewBox="0 0 702.4 209.5" style="enable-background:new 0 0 702.4 209.5;" xml:space="preserve"
	>
<style type="text/css">
	.st0{fill:#B3AEAD;}
</style>
<path class="st0" d="M209.9,184.6c-16.3,0-29.3-12.8-29.3-29.3h-25.9c0,30.7,24.3,54.2,55.2,54.2c30.9,0,55.2-23.5,55.2-54.2h-25.9
	C239.3,171.9,226.3,184.6,209.9,184.6 M264.2,66.4V46.1h-35.9c-5.8-2-12-3.2-18.3-3.2c-30.9,0-55.2,23.5-55.2,54.2
	c0,30.7,24.3,54.2,55.2,54.2c30.9,0,55.2-23.5,55.2-54.2c0-10.4-2.8-20.5-8.4-28.1L264.2,66.4z M209.9,126.6
	c-16.3,0-29.3-13-29.3-29.7c0-16.6,13-29.3,29.3-29.3c16.5,0,29.5,12.8,29.5,29.5C239.5,113.8,226.5,126.6,209.9,126.6 M0,148.3
	h25.5V2.8H0V148.3z M90.7,42.9c-30.9,0-55.2,23.5-55.2,54.2c0,30.7,24.3,54.2,55.2,54.2c30.9,0,55.2-23.5,55.2-54.2
	C145.9,66.4,121.6,42.9,90.7,42.9 M90.7,126.6c-16.4,0-29.3-13-29.3-29.7c0-16.6,13-29.3,29.3-29.3c16.5,0,29.5,12.8,29.5,29.5
	C120.2,113.8,107.3,126.6,90.7,126.6 M275.3,148.3h25.5V46.1h-25.5V148.3z M538.3,67.6c10.8,0,19.5,5.6,26.3,13.4l17.7-17.5
	c-10-12.6-25.7-20.5-43.7-20.5c-30.9,0-55.2,23.5-55.2,54.2c0,30.7,24.3,54.2,55.2,54.2c17.9,0,33.7-8,43.7-20.5l-17.7-17.5
	c-6.6,7.6-15.6,13.4-26.5,13.4c-16.4,0-28.9-12.8-28.9-29.5C509.2,80.3,521.8,67.6,538.3,67.6 M697,34.1c0-2-1.4-2.8-3.4-2.8h-3.2
	v9.2h1.2v-3.6h2l2.2,3.6h1.4l-2.4-3.8C696.2,36.5,697,35.7,697,34.1 M691.6,35.7v-3.2h2c1.6,0,2.2,0.6,2.2,1.6c0,1-0.6,1.6-2.2,1.6
	H691.6z M648.4,42.9c-12.6,0-23.3,4.8-30.9,13v-53H592v145.5h25.5V92.7c0-14.8,9.4-24.9,24.9-24.9c14.6,0,22.5,9,22.5,24.9v55.6
	h25.5V88.1C690.5,59.8,672.7,42.9,648.4,42.9 M422.5,42.9c-30.7,0-54,23.5-54,54.8c0,30.9,21.3,53.6,54.4,53.6
	c18.3,0,34.7-6.8,46.7-19.5l-17.1-16.9c-8.4,8-17.3,13.8-28.9,13.8c-14,0-24.5-8-28.1-21.3h79.5v-6.2
	C474.9,66.2,453.4,42.9,422.5,42.9 M394.8,86.5c3.4-13.6,13.8-21.1,27.1-21.1c13.4,0,23.3,7.4,26.5,21.1H394.8z M693.6,27.1
	c-5,0-9,4-9,8.8c0,5,4,9,9,9c4.8,0,8.8-4,8.8-9C702.4,31.1,698.4,27.1,693.6,27.1 M693.6,43.7c-4.4,0-7.8-3.4-7.8-7.8
	c0-4.2,3.4-7.6,7.8-7.6c4.2,0,7.6,3.4,7.6,7.6C701.2,40.3,697.8,43.7,693.6,43.7 M287.9,0c-9.4,0-16.8,7.4-16.8,16.9
	c0,9.4,7.4,16.7,16.8,16.7c9.8,0,17.1-7.4,17.1-16.7C305.1,7.4,297.7,0,287.9,0 M351.1,14.6h-25.5v31.5h-13.8v22.7h13.8v79.6h25.5
	V68.8h14V46.1h-14V14.6z"/>
</svg>
