<?xml version="1.0" encoding="utf-8"?>
<!-- Generator: Adobe Illustrator 28.7.1, SVG Export Plug-In . SVG Version: 9.03 Build 54978)  -->
<svg version="1.0" id="Layer_1" xmlns="http://www.w3.org/2000/svg" xmlns:xlink="http://www.w3.org/1999/xlink" x="0px" y="0px"
	 width="149px" height="24px" viewBox="0 0 149 24" style="enable-background:new 0 0 149 24;" xml:space="preserve">
<style type="text/css">
	.st0{fill:#B2AEAD;}
</style>
<path class="st0" d="M60.8,7.2c0,0.3-0.1,0.5-0.1,0.8c-0.7-0.5-1.5-1-2.4-1.3c-1.9-0.7-4-0.7-5.8,0.2c-1,0.5-1.9,1.1-2.7,2
	c-0.8,0.8-1.4,1.8-1.8,2.8c-0.4,1.1-0.6,2.2-0.6,3.4c0,1.1,0.2,2.3,0.6,3.4c0.4,1.1,1,2.1,1.8,2.9c0.7,0.8,1.7,1.5,2.7,2
	c1,0.4,2.1,0.7,3.2,0.7c1.9,0,3.6-0.6,5-1.8l0.2,1.6h3.1V6.5h-3.1C60.9,6.8,60.8,7,60.8,7.2z M60.2,17.2c-0.2,0.6-0.6,1.2-1,1.7
	c-0.4,0.5-1,0.9-1.6,1.1c-0.6,0.3-1.2,0.4-1.9,0.4c-0.7,0-1.3-0.1-1.9-0.4c-0.6-0.3-1.1-0.7-1.5-1.1c-0.4-0.5-0.8-1.1-1-1.7
	c-0.3-0.7-0.4-1.4-0.4-2.1c0-0.7,0.1-1.4,0.4-2.1c0.2-0.6,0.6-1.2,1-1.7c0.4-0.5,1-0.9,1.5-1.2c0.6-0.3,1.2-0.4,1.9-0.4
	c0.7,0,1.3,0.1,1.9,0.4c0.6,0.3,1.1,0.7,1.6,1.2c0.4,0.5,0.8,1.1,1,1.7c0.3,0.7,0.4,1.4,0.4,2.1C60.6,15.8,60.5,16.6,60.2,17.2z
	 M12.5,19c-0.1,1.4-0.7,2.6-2,3.6C9.3,23.5,7.8,24,5.9,24c-1.1-0.1-2.2-0.4-3.1-0.9c-1-0.5-1.9-1.4-2.8-2.6l2.9-1.9
	c0.5,0.7,1,1.2,1.5,1.4c0.5,0.2,1,0.4,1.6,0.4c0.8,0,1.5-0.2,2.1-0.5C8.7,19.7,9,19.3,9,18.9c0-0.3-0.1-0.5-0.3-0.7
	c-0.2-0.3-0.5-0.5-0.8-0.7c-0.3-0.2-0.7-0.4-1.1-0.6c-0.4-0.2-0.8-0.4-1.3-0.6c-0.6-0.3-1.2-0.6-1.8-0.9c-0.6-0.3-1.1-0.7-1.7-1.1
	c-0.5-0.4-0.9-0.9-1.2-1.4c-0.3-0.5-0.5-1.2-0.4-1.9c0-0.8,0.2-1.4,0.5-2c0.3-0.6,0.8-1,1.3-1.4C3,7.2,3.6,6.9,4.3,6.7
	c0.6-0.2,1.3-0.3,2-0.3c1.4,0,2.6,0.3,3.6,0.9c1,0.6,1.9,1.3,2.6,2.1l-2.9,2.1c-0.9-1-1.9-1.6-3.2-1.6C5.6,9.9,5,10,4.6,10.2
	c-0.4,0.2-0.5,0.5-0.5,0.8c0,0.2,0.1,0.5,0.4,0.7c0.3,0.2,0.6,0.5,1,0.7c0.4,0.2,0.7,0.4,1.1,0.5C7,13,7.2,13.2,7.4,13.2
	c0.4,0.2,0.8,0.4,1.3,0.6C9,14,9.4,14.2,9.8,14.5C11.7,15.7,12.6,17.2,12.5,19z M75.1,6.3c0.4-0.1,0.8-0.1,1.3-0.1v3.5
	c-0.7,0-1.4,0.1-2.1,0.4c-0.6,0.3-1.2,0.7-1.7,1.1c-0.5,0.5-0.9,1.1-1.1,1.7c-0.3,0.7-0.4,1.4-0.4,2.1c0,1.4,0,2.8,0,4.4
	c0,1.5,0,3,0,4.4h-3.5V6.5h3.1l0.1,1.7c0.4-0.4,0.9-0.7,1.4-1c0.5-0.3,1-0.5,1.5-0.6C74.1,6.5,74.6,6.4,75.1,6.3z M43.7,11.7
	c0.4,1.1,0.6,2.2,0.6,3.4v8.7h-3.4v-8.7c0-1.3-0.4-2.5-1.2-3.5c-0.4-0.5-0.9-0.9-1.5-1.2c-0.6-0.3-1.3-0.5-2-0.6
	c-0.6,0-1.3,0.2-1.8,0.5c-1.1,0.6-2,1.6-2.4,2.9c-0.2,0.6-0.4,1.3-0.4,1.9v8.7h-3.5v-8.7c0-1.3-0.4-2.5-1.2-3.5
	c-0.4-0.5-0.9-0.9-1.5-1.2c-0.6-0.3-1.3-0.5-1.9-0.6c-1.3,0.1-2.5,0.7-3.3,1.7c-0.4,0.5-0.7,1.1-1,1.7c-0.2,0.6-0.3,1.3-0.3,1.9v8.8
	h-3.4V6.5h3.1l0,1.5c1.4-1.2,3-1.7,4.9-1.7c1.3,0,2.5,0.3,3.6,0.9c1.1,0.6,2.1,1.4,2.8,2.5c0.7-1,1.7-1.9,2.8-2.5
	c1.1-0.6,2.3-0.9,3.5-0.9c1.1,0,2.2,0.2,3.2,0.7c1,0.5,1.8,1.1,2.6,1.9C42.7,9.7,43.3,10.7,43.7,11.7z M147,21.5l2,2.5h-4.5
	c-0.9-1.1-1.7-2.2-2.6-3.3c-0.6-0.8-1.3-1.6-1.9-2.4l-0.1-0.1l-0.1-0.1l-0.6,0.7v5h-3.5V0h3.5v13.2c0.9-1.2,1.8-2.3,2.7-3.3
	c0.9-1.1,1.7-2.2,2.6-3.3h4.5l-6.2,7.8l-0.8,1L147,21.5L147,21.5z M85.5,20.3h2.4l0,3.5h-2.4c-1,0-1.9-0.2-2.8-0.6
	c-1.7-0.7-3.1-2.1-3.8-3.8c-0.4-0.9-0.6-1.8-0.6-2.8V0h3.5v6.5h3.7V10h-3.7v6.5c0,0.5,0.1,1,0.3,1.4c0.2,0.4,0.5,0.8,0.8,1.2
	C83.5,19.9,84.5,20.3,85.5,20.3z M130.4,8.9c-0.7-0.8-1.6-1.4-2.6-1.9c0,0,0,0,0,0c0,0-0.1,0-0.1-0.1c-1-0.5-2.1-0.7-3.3-0.7
	c-1.1,0-2.2,0.2-3.3,0.7c0,0-0.1,0-0.1,0.1l0,0c-1,0.5-1.9,1.1-2.6,1.9c-0.1,0.1-0.2,0.2-0.3,0.3c-2.4,2.5-4.3,2.4-6.7-0.1
	c-0.1-0.1-0.1-0.2-0.2-0.2c-0.8-0.8-1.7-1.5-2.8-2c-1-0.5-2.1-0.7-3.3-0.7c-1.1,0-2.2,0.2-3.3,0.7c-2.1,1-3.7,2.7-4.6,4.8
	c-1.3,3.3-0.6,7.1,1.8,9.6c0.7,0.8,1.6,1.4,2.6,1.9c0,0,0,0,0,0c0,0,0.1,0,0.1,0.1c1,0.4,2.1,0.7,3.3,0.7c1.1,0,2.2-0.2,3.3-0.7
	c0.1,0,0.1,0,0.2-0.1l0,0c1-0.4,1.9-1.1,2.6-1.9c0.1-0.1,0.1-0.2,0.2-0.2v0c2.4-2.6,4.3-2.6,6.7,0c0.1,0.1,0.1,0.2,0.2,0.2
	c0.8,0.8,1.7,1.5,2.7,2c1,0.4,2.1,0.7,3.3,0.7c1.1,0,2.2-0.2,3.3-0.7c1.1-0.4,2-1.1,2.8-2c0.8-0.8,1.4-1.8,1.8-2.9
	c0.8-2.2,0.8-4.6,0-6.7C131.8,10.7,131.2,9.7,130.4,8.9z M129,17.2c-0.2,0.6-0.6,1.2-1.1,1.7c-0.4,0.5-1,0.9-1.6,1.1
	c-1.2,0.6-2.7,0.6-3.9,0c-0.6-0.3-1.1-0.7-1.6-1.1c-0.1-0.1-0.2-0.2-0.3-0.3v0c-3.4-3.5-8.2-3.5-11.6,0v0c-0.1,0.1-0.2,0.2-0.3,0.3
	c-0.4,0.5-1,0.9-1.6,1.1c-0.6,0.3-1.2,0.4-1.9,0.4v0h0c-0.1,0-0.3,0-0.4,0c0.1,0,0.2,0,0.4,0v0c-0.7,0-1.3-0.1-1.9-0.4
	c-0.6-0.3-1.1-0.7-1.6-1.1c-0.5-0.5-0.8-1.1-1.1-1.7c-0.3-0.7-0.4-1.4-0.4-2.1c0-1.4,0.5-2.8,1.5-3.8c0.5-0.5,1-0.9,1.6-1.2
	c1.2-0.6,2.7-0.6,3.9,0c0.6,0.3,1.1,0.7,1.6,1.2c0.1,0.1,0.1,0.2,0.2,0.3v0c3.4,3.5,8.3,3.5,11.7,0v0c0.1-0.1,0.1-0.2,0.2-0.3
	c0.4-0.5,1-0.9,1.6-1.2c0.6-0.3,1.3-0.4,1.9-0.4v0h0c0.2,0,0.3,0,0.5,0c-0.1,0-0.3,0-0.4,0v0c0.7,0,1.3,0.1,1.9,0.4
	c0.6,0.3,1.1,0.7,1.6,1.2c0.9,1,1.5,2.4,1.5,3.8C129.4,15.8,129.2,16.6,129,17.2z M90.5,0H94v23.8h-3.5V0z"/>
</svg>
