<?xml version="1.0" encoding="utf-8"?>
<!-- Generator: Adobe Illustrator 28.7.1, SVG Export Plug-In . SVG Version: 9.03 Build 54978)  -->
<svg version="1.0" id="layer_1" xmlns="http://www.w3.org/2000/svg" xmlns:xlink="http://www.w3.org/1999/xlink" x="0px" y="0px"
	 width="631.4px" height="237.4px" viewBox="0 0 631.4 237.4" style="enable-background:new 0 0 631.4 237.4;" xml:space="preserve"
	>
<style type="text/css">
	.st0{fill:#B2AEAD;}
</style>
<path class="st0" d="M98.1,56.6L49,28.3L0,56.6V28.3L49,0l49.1,28.3L98.1,56.6L98.1,56.6z M0,145c0,14.7,4.7,25.7,13.8,33.5
	c9.1,7.9,20.8,11.7,35,11.7c14.2,0,25.9-3.8,35.3-11.7c9.3-7.9,14-19.3,14-34.2V80.4H72.4v62.2c0,16.1-12,24.2-23.4,24.2
	c-11.3,0-23.4-7.9-23.4-24V80.4H0V145z M339.3,169c-11.6,13.3-27.2,21-46.7,21c-16.8,0-30.6-5.1-41-15.1
	c-10.4-10-15.7-23.4-15.7-40.1v-0.8c0-17,5.3-30.6,15.7-41c10.6-10.4,24-15.5,40.3-15.5c15.5,0,28.2,5.1,38,15.5
	c10,10.4,14.9,23.1,14.9,38.4c0,4.9-0.6,10.2-0.6,10.2h-83c1.4,16.3,13.8,26.8,32.2,26.8c10.1,0,19-3.4,26.7-10.3
	C320.2,158,339.3,169,339.3,169z M271.4,105.9c-5.5,4.3-8.6,9.5-9.4,15.7h57c-0.2-6-3-11.2-8-15.5c-5.3-4.7-11.5-7-18.9-7
	C284.1,99.1,277.1,101.4,271.4,105.9L271.4,105.9z M578.9,204.4l52.6-124h-26.1l-32.1,78.1L542,80.4h-26.1l44,108.5l-5.1,11.8
	c-5.1,11.8-10.4,13.9-16.2,13.9h-9.4v22.8h11.6C557.5,237.4,568.4,229,578.9,204.4L578.9,204.4z M198.1,39.4h25.5v148h-25.5v-9.9
	c-5.8,5.4-16.8,12.2-34.2,12.2c-15.1,0-27.8-5.3-38.2-15.9c-10.2-10.8-15.3-24-15.3-39.9c0-15.9,5.1-29.1,15.3-39.7
	c10.4-10.8,23.1-16.1,38.2-16.1c12.7,0,25.8,4.5,34.2,12V39.4L198.1,39.4z M200,133.9c0-9.3-3.2-17.2-9.6-23.4
	c-6.2-6.2-14-9.3-23.1-9.3c-9.1,0-16.6,3.2-22.7,9.3c-5.9,6.2-8.9,14-8.9,23.4c0,9.3,3,17.2,8.9,23.4c6.2,6.2,13.6,9.3,22.7,9.3
	c9.1,0,17-3.2,23.1-9.3C196.8,151.1,200,143.3,200,133.9z M476.3,78.3c22.2,0,37.2,15,37.2,42.9v66.2H488v-62.6
	c0-14.6-7-23.8-19.1-23.8c-12.5,0-21.2,10.2-21.2,24.8v61.6h-25.3v-62.6c0-14.6-7-23.8-19.1-23.8c-11.9,0-20.8,10.4-20.8,24.8v61.6
	h-25.3v-107h25.3v11.1C387,86,396,78.3,411.3,78.3c18.1,0,25.9,10.5,28.7,15.8C446.9,86.3,457,78.3,476.3,78.3L476.3,78.3z"/>
</svg>
